# xmcd
#
# Track frame offsets: 
#        150
#        18672
#        30147
#        48422
#        60145
#        69720
#        81130
#        105862
#        120107
#        134102
#        149842
#        160835
#        176785
#        191765
#        206365
#        216560
#        228047
#        239732
#        255725
#        269432
#        300932
#        314247
#        328807
#
# Disc length: 4585 seconds
#
# Revision: 1
# Processed by: cddbd v1.5.2PL0 Copyright (c) Steve Scherf et al.
# Submitted via: ExactAudioCopy v1.0b3
#
DISCID=5011e717
DTITLE=Brunning Sunflower Blues Band - Bullen St. Blues - Trackside Bl
DTITLE=ues
DYEAR=2003
DGENRE=Blues
TTITLE0=Gone Back Home
TTITLE1=Hit That Wine
TTITLE2=Bullen Street Blues
TTITLE3=No Idea
TTITLE4=Shout Your Name And Call It
TTITLE5=Take Your Hands Off Me
TTITLE6='Fore Time Began
TTITLE7=Something Tells Me
TTITLE8=Big Belly Blues
TTITLE9=Sunflower Boogie
TTITLE10=Rockin' Chair
TTITLE11=Ride With Your Daddy Tonight
TTITLE12=Tube Train Blues
TTITLE13=Sunflower Shuffle
TTITLE14=Simple Simon
TTITLE15=I Met This Bird In Playboy
TTITLE16=Ah! Soul (aka Uranus Pt.1)
TTITLE17=It Takes Time
TTITLE18=Baby You're The real Thing
TTITLE19=If You Let Me Love You
TTITLE20=North Star
TTITLE21=Closing Hours
TTITLE22=Uranus
EXTD=2 LPs on one CD - Bullen Street Blues and Trackside Blues
EXTT0=
EXTT1=
EXTT2=
EXTT3=
EXTT4=
EXTT5=
EXTT6=
EXTT7=
EXTT8=
EXTT9=
EXTT10=
EXTT11=
EXTT12=
EXTT13=
EXTT14=
EXTT15=
EXTT16=
EXTT17=
EXTT18=
EXTT19=
EXTT20=
EXTT21=
EXTT22=
PLAYORDER=
